<?xml version="1.0" encoding="UTF-8"?>
<!DOCTYPE svg PUBLIC "-//W3C//DTD SVG 1.1//EN" "http://www.w3.org/Graphics/SVG/1.1/DTD/svg11.dtd">
<svg version="1.2" width="210mm" height="297mm" viewBox="0 0 21000 29700" preserveAspectRatio="xMidYMid" fill-rule="evenodd" clip-path="url(#presentation_clip_path)" stroke-width="28.222" stroke-linejoin="round" xmlns="http://www.w3.org/2000/svg" xmlns:ooo="http://xml.openoffice.org/svg/export" xmlns:xlink="http://www.w3.org/1999/xlink" xml:space="preserve">
 <defs class="ClipPathGroup">
  <clipPath id="presentation_clip_path" clipPathUnits="userSpaceOnUse">
   <rect x="0" y="0" width="21000" height="29700"/>
  </clipPath>
 </defs>
 <defs class="TextShapeIndex">
  <g ooo:slide="id1" ooo:id-list="id3 id4 id5 id6 id7 id8 id9 id10 id11 id12 id13 id14 id15 id16 id17 id18 id19 id20 id21 id22 id23 id24 id25 id26 id27 id28 id29 id30 id31"/>
 </defs>
 <defs class="EmbeddedBulletChars">
  <g id="bullet-char-template(57356)" transform="scale(0.00048828125,-0.00048828125)">
   <path d="M 580,1141 L 1163,571 580,0 -4,571 580,1141 Z"/>
  </g>
  <g id="bullet-char-template(57354)" transform="scale(0.00048828125,-0.00048828125)">
   <path d="M 8,1128 L 1137,1128 1137,0 8,0 8,1128 Z"/>
  </g>
  <g id="bullet-char-template(10146)" transform="scale(0.00048828125,-0.00048828125)">
   <path d="M 174,0 L 602,739 174,1481 1456,739 174,0 Z M 1358,739 L 309,1346 659,739 1358,739 Z"/>
  </g>
  <g id="bullet-char-template(10132)" transform="scale(0.00048828125,-0.00048828125)">
   <path d="M 2015,739 L 1276,0 717,0 1260,543 174,543 174,936 1260,936 717,1481 1274,1481 2015,739 Z"/>
  </g>
  <g id="bullet-char-template(10007)" transform="scale(0.00048828125,-0.00048828125)">
   <path d="M 0,-2 C -7,14 -16,27 -25,37 L 356,567 C 262,823 215,952 215,954 215,979 228,992 255,992 264,992 276,990 289,987 310,991 331,999 354,1012 L 381,999 492,748 772,1049 836,1024 860,1049 C 881,1039 901,1025 922,1006 886,937 835,863 770,784 769,783 710,716 594,584 L 774,223 C 774,196 753,168 711,139 L 727,119 C 717,90 699,76 672,76 641,76 570,178 457,381 L 164,-76 C 142,-110 111,-127 72,-127 30,-127 9,-110 8,-76 1,-67 -2,-52 -2,-32 -2,-23 -1,-13 0,-2 Z"/>
  </g>
  <g id="bullet-char-template(10004)" transform="scale(0.00048828125,-0.00048828125)">
   <path d="M 285,-33 C 182,-33 111,30 74,156 52,228 41,333 41,471 41,549 55,616 82,672 116,743 169,778 240,778 293,778 328,747 346,684 L 369,508 C 377,444 397,411 428,410 L 1163,1116 C 1174,1127 1196,1133 1229,1133 1271,1133 1292,1118 1292,1087 L 1292,965 C 1292,929 1282,901 1262,881 L 442,47 C 390,-6 338,-33 285,-33 Z"/>
  </g>
  <g id="bullet-char-template(9679)" transform="scale(0.00048828125,-0.00048828125)">
   <path d="M 813,0 C 632,0 489,54 383,161 276,268 223,411 223,592 223,773 276,916 383,1023 489,1130 632,1184 813,1184 992,1184 1136,1130 1245,1023 1353,916 1407,772 1407,592 1407,412 1353,268 1245,161 1136,54 992,0 813,0 Z"/>
  </g>
  <g id="bullet-char-template(8226)" transform="scale(0.00048828125,-0.00048828125)">
   <path d="M 346,457 C 273,457 209,483 155,535 101,586 74,649 74,723 74,796 101,859 155,911 209,963 273,989 346,989 419,989 480,963 531,910 582,859 608,796 608,723 608,648 583,586 532,535 482,483 420,457 346,457 Z"/>
  </g>
  <g id="bullet-char-template(8211)" transform="scale(0.00048828125,-0.00048828125)">
   <path d="M -4,459 L 1135,459 1135,606 -4,606 -4,459 Z"/>
  </g>
 </defs>
 <defs class="TextEmbeddedBitmaps"/>
 <g>
  <g id="id2" class="Master_Slide">
   <g id="bg-id2" class="Background">
    <path fill="rgb(255,255,255)" stroke="none" d="M 10500,29699 L 0,29699 0,0 20999,0 20999,29699 10500,29699 Z"/>
   </g>
   <g id="bo-id2" class="BackgroundObjects"/>
  </g>
 </g>
 <g class="SlideGroup">
  <g>
   <g id="id1" class="Slide" clip-path="url(#presentation_clip_path)">
    <g class="Page">
     <g class="com.sun.star.drawing.CustomShape">
      <g id="id3">
       <path fill="rgb(114,159,207)" stroke="none" d="M 8405,2500 L 13701,2500 13096,3501 7800,3501 8405,2500 Z M 7800,2500 L 7800,2500 Z M 13701,3501 L 13701,3501 Z"/>
       <path fill="none" stroke="rgb(52,101,175)" d="M 8405,2500 L 13701,2500 13096,3501 7800,3501 8405,2500 Z"/>
       <path fill="none" stroke="rgb(52,101,175)" d="M 7800,2500 L 7800,2500 Z"/>
       <path fill="none" stroke="rgb(52,101,175)" d="M 13701,3501 L 13701,3501 Z"/>
       <text class="TextShape"><tspan class="TextParagraph" font-family="DejaVu Sans, sans-serif" font-size="423px" font-weight="400"><tspan class="TextPosition" x="8580" y="3146"><tspan fill="rgb(0,0,0)" stroke="none">Серіалізовані данні</tspan></tspan></tspan></text>
      </g>
     </g>
     <g class="com.sun.star.drawing.CustomShape">
      <g id="id4">
       <path fill="rgb(114,159,207)" stroke="none" d="M 10750,5100 L 6600,5100 6600,4400 14900,4400 14900,5100 10750,5100 Z"/>
       <path fill="none" stroke="rgb(52,101,175)" d="M 10750,5100 L 6600,5100 6600,4400 14900,4400 14900,5100 10750,5100 Z"/>
       <text class="TextShape"><tspan class="TextParagraph" font-family="DejaVu Sans, sans-serif" font-size="423px" font-weight="400"><tspan class="TextPosition" x="7154" y="4896"><tspan fill="rgb(0,0,0)" stroke="none">Виклик функції-десеріалізатора</tspan></tspan></tspan></text>
      </g>
     </g>
     <g class="com.sun.star.drawing.ConnectorShape">
      <g id="id5">
       <path fill="none" stroke="rgb(0,0,0)" d="M 10750,3500 L 10750,3970"/>
       <path fill="rgb(0,0,0)" stroke="none" d="M 10750,4400 L 10900,3950 10600,3950 10750,4400 Z"/>
      </g>
     </g>
     <g class="com.sun.star.drawing.CustomShape">
      <g id="id6">
       <path fill="rgb(114,159,207)" stroke="none" d="M 11750,6000 L 14101,6650 11750,7301 9400,6650 11750,6000 11750,6000 Z M 9400,6000 L 9400,6000 Z M 14101,7301 L 14101,7301 Z"/>
       <path fill="none" stroke="rgb(52,101,175)" d="M 11750,6000 L 14101,6650 11750,7301 9400,6650 11750,6000 11750,6000 Z"/>
       <path fill="none" stroke="rgb(52,101,175)" d="M 9400,6000 L 9400,6000 Z"/>
       <path fill="none" stroke="rgb(52,101,175)" d="M 14101,7301 L 14101,7301 Z"/>
       <text class="TextShape"><tspan class="TextParagraph" font-family="DejaVu Sans, sans-serif" font-size="423px" font-weight="400"><tspan class="TextPosition" x="10647" y="6796"><tspan fill="rgb(0,0,0)" stroke="none">Вказівник</tspan></tspan></tspan></text>
      </g>
     </g>
     <g class="com.sun.star.drawing.ConnectorShape">
      <g id="id7">
       <path fill="none" stroke="rgb(0,0,0)" d="M 10750,5100 L 10750,5550 11750,5550 11750,5570"/>
       <path fill="rgb(0,0,0)" stroke="none" d="M 11750,6000 L 11900,5550 11600,5550 11750,6000 Z"/>
      </g>
     </g>
     <g class="com.sun.star.drawing.CustomShape">
      <g id="id8">
       <path fill="rgb(114,159,207)" stroke="none" d="M 16150,7900 L 19101,9200 16150,10501 13200,9200 16150,7900 16150,7900 Z M 13200,7900 L 13200,7900 Z M 19101,10501 L 19101,10501 Z"/>
       <path fill="none" stroke="rgb(52,101,175)" d="M 16150,7900 L 19101,9200 16150,10501 13200,9200 16150,7900 16150,7900 Z"/>
       <path fill="none" stroke="rgb(52,101,175)" d="M 13200,7900 L 13200,7900 Z"/>
       <path fill="none" stroke="rgb(52,101,175)" d="M 19101,10501 L 19101,10501 Z"/>
       <text class="TextShape"><tspan class="TextParagraph" font-family="DejaVu Sans, sans-serif" font-size="423px" font-weight="400"><tspan class="TextPosition" x="14914" y="8850"><tspan fill="rgb(0,0,0)" stroke="none">Є у списку </tspan></tspan></tspan><tspan class="TextParagraph" font-family="DejaVu Sans, sans-serif" font-size="423px" font-weight="400"><tspan class="TextPosition" x="14209" y="9346"><tspan fill="rgb(0,0,0)" stroke="none">десеріалізованих</tspan></tspan></tspan></text>
      </g>
     </g>
     <g class="com.sun.star.drawing.ConnectorShape">
      <g id="id9">
       <path fill="none" stroke="rgb(0,0,0)" d="M 14100,6650 L 16150,6650 16150,7470"/>
       <path fill="rgb(0,0,0)" stroke="none" d="M 16150,7900 L 16300,7450 16000,7450 16150,7900 Z"/>
       <text class="TextShape"><tspan class="TextParagraph" font-family="DejaVu Sans, sans-serif" font-size="423px" font-weight="400"><tspan class="TextPosition" x="14270" y="7173"><tspan fill="rgb(0,0,0)" stroke="none">так       </tspan></tspan></tspan></text>
      </g>
     </g>
     <g class="com.sun.star.drawing.CustomShape">
      <g id="id10">
       <path fill="rgb(114,159,207)" stroke="none" d="M 8250,10000 L 5400,10000 5400,8400 11100,8400 11100,10000 8250,10000 Z"/>
       <path fill="none" stroke="rgb(52,101,175)" d="M 8250,10000 L 5400,10000 5400,8400 11100,8400 11100,10000 8250,10000 Z"/>
       <text class="TextShape"><tspan class="TextParagraph" font-family="DejaVu Sans, sans-serif" font-size="423px" font-weight="400"><tspan class="TextPosition" x="5625" y="8850"><tspan fill="rgb(0,0,0)" stroke="none">В атрибут записується </tspan></tspan></tspan><tspan class="TextParagraph" font-family="DejaVu Sans, sans-serif" font-size="423px" font-weight="400"><tspan class="TextPosition" x="6766" y="9346"><tspan fill="rgb(0,0,0)" stroke="none">вказівник на </tspan></tspan></tspan><tspan class="TextParagraph" font-family="DejaVu Sans, sans-serif" font-size="423px" font-weight="400"><tspan class="TextPosition" x="5835" y="9842"><tspan fill="rgb(0,0,0)" stroke="none">десеріалізовані данні</tspan></tspan></tspan></text>
      </g>
     </g>
     <g class="com.sun.star.drawing.ConnectorShape">
      <g id="id11">
       <path fill="none" stroke="rgb(0,0,0)" d="M 13200,9200 L 11530,9200"/>
       <path fill="rgb(0,0,0)" stroke="none" d="M 11100,9200 L 11550,9350 11550,9050 11100,9200 Z"/>
       <text class="TextShape"><tspan class="TextParagraph" font-family="DejaVu Sans, sans-serif" font-size="423px" font-weight="400"><tspan class="TextPosition" x="11769" y="9098"><tspan fill="rgb(0,0,0)" stroke="none">так</tspan></tspan></tspan></text>
      </g>
     </g>
     <g class="com.sun.star.drawing.CustomShape">
      <g id="id12">
       <path fill="rgb(114,159,207)" stroke="none" d="M 16150,13200 L 13200,13200 13200,12000 19100,12000 19100,13200 16150,13200 Z"/>
       <path fill="none" stroke="rgb(52,101,175)" d="M 16150,13200 L 13200,13200 13200,12000 19100,12000 19100,13200 16150,13200 Z"/>
       <text class="TextShape"><tspan class="TextParagraph" font-family="DejaVu Sans, sans-serif" font-size="423px" font-weight="400"><tspan class="TextPosition" x="13409" y="12498"><tspan fill="rgb(0,0,0)" stroke="none">Вказівник додається до </tspan></tspan></tspan><tspan class="TextParagraph" font-family="DejaVu Sans, sans-serif" font-size="423px" font-weight="400"><tspan class="TextPosition" x="13381" y="12994"><tspan fill="rgb(0,0,0)" stroke="none">списку десеріалізованих</tspan></tspan></tspan></text>
      </g>
     </g>
     <g class="com.sun.star.drawing.ConnectorShape">
      <g id="id13">
       <path fill="none" stroke="rgb(0,0,0)" d="M 16150,10500 L 16150,11570"/>
       <path fill="rgb(0,0,0)" stroke="none" d="M 16150,12000 L 16300,11550 16000,11550 16150,12000 Z"/>
       <text class="TextShape"><tspan class="TextParagraph" font-family="DejaVu Sans, sans-serif" font-size="423px" font-weight="400"><tspan class="TextPosition" x="15546" y="11396"><tspan fill="rgb(0,0,0)" stroke="none">      </tspan><tspan fill="rgb(0,0,0)" stroke="none">ні</tspan></tspan></tspan></text>
      </g>
     </g>
     <g class="com.sun.star.drawing.ConnectorShape">
      <g id="id14">
       <path fill="none" stroke="rgb(0,0,0)" d="M 13200,12600 L 8250,12600 8250,10430"/>
       <path fill="rgb(0,0,0)" stroke="none" d="M 8250,10000 L 8100,10450 8400,10450 8250,10000 Z"/>
      </g>
     </g>
     <g class="com.sun.star.drawing.CustomShape">
      <g id="id15">
       <path fill="rgb(114,159,207)" stroke="none" d="M 16150,14200 L 18401,14800 16150,15401 13900,14800 16150,14200 16150,14200 Z M 13900,14200 L 13900,14200 Z M 18401,15401 L 18401,15401 Z"/>
       <path fill="none" stroke="rgb(52,101,175)" d="M 16150,14200 L 18401,14800 16150,15401 13900,14800 16150,14200 16150,14200 Z"/>
       <path fill="none" stroke="rgb(52,101,175)" d="M 13900,14200 L 13900,14200 Z"/>
       <path fill="none" stroke="rgb(52,101,175)" d="M 18401,15401 L 18401,15401 Z"/>
       <text class="TextShape"><tspan class="TextParagraph" font-family="DejaVu Sans, sans-serif" font-size="423px" font-weight="400"><tspan class="TextPosition" x="14979" y="14946"><tspan fill="rgb(0,0,0)" stroke="none">Структура</tspan></tspan></tspan></text>
      </g>
     </g>
     <g class="com.sun.star.drawing.ConnectorShape">
      <g id="id16">
       <path fill="none" stroke="rgb(0,0,0)" d="M 16150,13200 L 16150,13770"/>
       <path fill="rgb(0,0,0)" stroke="none" d="M 16150,14200 L 16300,13750 16000,13750 16150,14200 Z"/>
      </g>
     </g>
     <g class="com.sun.star.drawing.ConnectorShape">
      <g id="id17">
       <path fill="none" stroke="rgb(0,0,0)" d="M 18400,14800 L 19800,14800 19800,4750 15330,4750"/>
       <path fill="rgb(0,0,0)" stroke="none" d="M 14900,4750 L 15350,4900 15350,4600 14900,4750 Z"/>
       <text class="TextShape"><tspan class="TextParagraph" font-family="DejaVu Sans, sans-serif" font-size="423px" font-weight="400"><tspan class="TextPosition" x="15208" y="14633"><tspan fill="rgb(0,0,0)" stroke="none">                          </tspan><tspan fill="rgb(0,0,0)" stroke="none">так</tspan></tspan></tspan></text>
      </g>
     </g>
     <g class="com.sun.star.drawing.CustomShape">
      <g id="id18">
       <path fill="rgb(114,159,207)" stroke="none" d="M 4300,7200 L 1800,7200 1800,6100 6800,6100 6800,7200 4300,7200 Z"/>
       <path fill="none" stroke="rgb(52,101,175)" d="M 4300,7200 L 1800,7200 1800,6100 6800,6100 6800,7200 4300,7200 Z"/>
       <text class="TextShape"><tspan class="TextParagraph" font-family="DejaVu Sans, sans-serif" font-size="423px" font-weight="400"><tspan class="TextPosition" x="2041" y="6548"><tspan fill="rgb(0,0,0)" stroke="none">Копіювання данних </tspan></tspan></tspan><tspan class="TextParagraph" font-family="DejaVu Sans, sans-serif" font-size="423px" font-weight="400"><tspan class="TextPosition" x="2122" y="7044"><tspan fill="rgb(0,0,0)" stroke="none">з буферу в атрибут</tspan></tspan></tspan></text>
      </g>
     </g>
     <g class="com.sun.star.drawing.ConnectorShape">
      <g id="id19">
       <path fill="none" stroke="rgb(0,0,0)" d="M 9400,6650 L 7230,6650"/>
       <path fill="rgb(0,0,0)" stroke="none" d="M 6800,6650 L 7250,6800 7250,6500 6800,6650 Z"/>
       <text class="TextShape"><tspan class="TextParagraph" font-family="DejaVu Sans, sans-serif" font-size="423px" font-weight="400"><tspan class="TextPosition" x="7903" y="6548"><tspan fill="rgb(0,0,0)" stroke="none">ні</tspan></tspan></tspan></text>
      </g>
     </g>
     <g class="com.sun.star.drawing.CustomShape">
      <g id="id20">
       <path fill="rgb(114,159,207)" stroke="none" d="M 4300,12100 L 6801,12850 4300,13601 1800,12850 4300,12100 4300,12100 Z M 1800,12100 L 1800,12100 Z M 6801,13601 L 6801,13601 Z"/>
       <path fill="none" stroke="rgb(52,101,175)" d="M 4300,12100 L 6801,12850 4300,13601 1800,12850 4300,12100 4300,12100 Z"/>
       <path fill="none" stroke="rgb(52,101,175)" d="M 1800,12100 L 1800,12100 Z"/>
       <path fill="none" stroke="rgb(52,101,175)" d="M 6801,13601 L 6801,13601 Z"/>
       <text class="TextShape"><tspan class="TextParagraph" font-family="DejaVu Sans, sans-serif" font-size="423px" font-weight="400"><tspan class="TextPosition" x="2642" y="12996"><tspan fill="rgb(0,0,0)" stroke="none">Ще є атрибути</tspan></tspan></tspan></text>
      </g>
     </g>
     <g class="com.sun.star.drawing.ConnectorShape">
      <g id="id21">
       <path fill="none" stroke="rgb(0,0,0)" d="M 4300,7200 L 4300,11670"/>
       <path fill="rgb(0,0,0)" stroke="none" d="M 4300,12100 L 4450,11650 4150,11650 4300,12100 Z"/>
      </g>
     </g>
     <g class="com.sun.star.drawing.CustomShape">
      <g id="id22">
       <path fill="rgb(114,159,207)" stroke="none" d="M 4300,15600 L 1700,15600 1700,14500 6900,14500 6900,15600 4300,15600 Z"/>
       <path fill="none" stroke="rgb(52,101,175)" d="M 4300,15600 L 1700,15600 1700,14500 6900,14500 6900,15600 4300,15600 Z"/>
       <text class="TextShape"><tspan class="TextParagraph" font-family="DejaVu Sans, sans-serif" font-size="423px" font-weight="400"><tspan class="TextPosition" x="3007" y="14948"><tspan fill="rgb(0,0,0)" stroke="none">Перехід до </tspan></tspan></tspan><tspan class="TextParagraph" font-family="DejaVu Sans, sans-serif" font-size="423px" font-weight="400"><tspan class="TextPosition" x="1923" y="15444"><tspan fill="rgb(0,0,0)" stroke="none">наступного атрибуту</tspan></tspan></tspan></text>
      </g>
     </g>
     <g class="com.sun.star.drawing.ConnectorShape">
      <g id="id23">
       <path fill="none" stroke="rgb(0,0,0)" d="M 4300,13600 L 4300,14070"/>
       <path fill="rgb(0,0,0)" stroke="none" d="M 4300,14500 L 4450,14050 4150,14050 4300,14500 Z"/>
       <text class="TextShape"><tspan class="TextParagraph" font-family="DejaVu Sans, sans-serif" font-size="423px" font-weight="400"><tspan class="TextPosition" x="3309" y="14196"><tspan fill="rgb(0,0,0)" stroke="none">         </tspan><tspan fill="rgb(0,0,0)" stroke="none">так</tspan></tspan></tspan></text>
      </g>
     </g>
     <g class="com.sun.star.drawing.ConnectorShape">
      <g id="id24">
       <path fill="none" stroke="rgb(0,0,0)" d="M 6900,15050 L 11750,15050 11750,7730"/>
       <path fill="rgb(0,0,0)" stroke="none" d="M 11750,7300 L 11600,7750 11900,7750 11750,7300 Z"/>
      </g>
     </g>
     <g class="com.sun.star.drawing.CustomShape">
      <g id="id25">
       <path fill="rgb(114,159,207)" stroke="none" d="M 10750,15900 L 14101,17050 10750,18201 7400,17050 10750,15900 10750,15900 Z M 7400,15900 L 7400,15900 Z M 14101,18201 L 14101,18201 Z"/>
       <path fill="none" stroke="rgb(52,101,175)" d="M 10750,15900 L 14101,17050 10750,18201 7400,17050 10750,15900 10750,15900 Z"/>
       <path fill="none" stroke="rgb(52,101,175)" d="M 7400,15900 L 7400,15900 Z"/>
       <path fill="none" stroke="rgb(52,101,175)" d="M 14101,18201 L 14101,18201 Z"/>
       <text class="TextShape"><tspan class="TextParagraph" font-family="DejaVu Sans, sans-serif" font-size="423px" font-weight="400"><tspan class="TextPosition" x="9616" y="16700"><tspan fill="rgb(0,0,0)" stroke="none">Коренева </tspan></tspan></tspan><tspan class="TextParagraph" font-family="DejaVu Sans, sans-serif" font-size="423px" font-weight="400"><tspan class="TextPosition" x="8098" y="17196"><tspan fill="rgb(0,0,0)" stroke="none">Функція-десеріалізатор</tspan></tspan></tspan></text>
      </g>
     </g>
     <g class="com.sun.star.drawing.ConnectorShape">
      <g id="id26">
       <path fill="none" stroke="rgb(0,0,0)" d="M 6800,12850 L 10750,12850 10750,15470"/>
       <path fill="rgb(0,0,0)" stroke="none" d="M 10750,15900 L 10900,15450 10600,15450 10750,15900 Z"/>
       <text class="TextShape"><tspan class="TextParagraph" font-family="DejaVu Sans, sans-serif" font-size="423px" font-weight="400"><tspan class="TextPosition" x="7020" y="13281"><tspan fill="rgb(0,0,0)" stroke="none">ні                       </tspan></tspan></tspan></text>
      </g>
     </g>
     <g class="com.sun.star.drawing.CustomShape">
      <g id="id27">
       <path fill="rgb(114,159,207)" stroke="none" d="M 3950,18600 L 2000,18600 2000,17900 5900,17900 5900,18600 3950,18600 Z"/>
       <path fill="none" stroke="rgb(52,101,175)" d="M 3950,18600 L 2000,18600 2000,17900 5900,17900 5900,18600 3950,18600 Z"/>
       <text class="TextShape"><tspan class="TextParagraph" font-family="DejaVu Sans, sans-serif" font-size="423px" font-weight="400"><tspan class="TextPosition" x="2251" y="18396"><tspan fill="rgb(0,0,0)" stroke="none">Вихід з функції</tspan></tspan></tspan></text>
      </g>
     </g>
     <g class="com.sun.star.drawing.ConnectorShape">
      <g id="id28">
       <path fill="none" stroke="rgb(0,0,0)" d="M 7400,17050 L 3950,17050 3950,17470"/>
       <path fill="rgb(0,0,0)" stroke="none" d="M 3950,17900 L 4100,17450 3800,17450 3950,17900 Z"/>
       <text class="TextShape"><tspan class="TextParagraph" font-family="DejaVu Sans, sans-serif" font-size="423px" font-weight="400"><tspan class="TextPosition" x="4055" y="17621"><tspan fill="rgb(0,0,0)" stroke="none">                     </tspan><tspan fill="rgb(0,0,0)" stroke="none">ні</tspan></tspan></tspan></text>
      </g>
     </g>
     <g class="com.sun.star.drawing.CustomShape">
      <g id="id29">
       <path fill="rgb(114,159,207)" stroke="none" d="M 8400,20300 C 8300,20300 8200,20400 8200,20500 L 8200,21300 C 8200,21400 8300,21501 8400,21501 L 13100,21501 C 13200,21501 13301,21400 13301,21300 L 13301,20500 C 13301,20400 13200,20300 13100,20300 L 8400,20300 Z M 8200,20300 L 8200,20300 Z M 13301,21501 L 13301,21501 Z"/>
       <path fill="none" stroke="rgb(52,101,175)" d="M 8400,20300 C 8300,20300 8200,20400 8200,20500 L 8200,21300 C 8200,21400 8300,21501 8400,21501 L 13100,21501 C 13200,21501 13301,21400 13301,21300 L 13301,20500 C 13301,20400 13200,20300 13100,20300 L 8400,20300 Z"/>
       <path fill="none" stroke="rgb(52,101,175)" d="M 8200,20300 L 8200,20300 Z"/>
       <path fill="none" stroke="rgb(52,101,175)" d="M 13301,21501 L 13301,21501 Z"/>
       <text class="TextShape"><tspan class="TextParagraph" font-family="DejaVu Sans, sans-serif" font-size="423px" font-weight="400"><tspan class="TextPosition" x="8856" y="20798"><tspan fill="rgb(0,0,0)" stroke="none">Десеріалізована </tspan></tspan></tspan><tspan class="TextParagraph" font-family="DejaVu Sans, sans-serif" font-size="423px" font-weight="400"><tspan class="TextPosition" x="9611" y="21294"><tspan fill="rgb(0,0,0)" stroke="none">структура</tspan></tspan></tspan></text>
      </g>
     </g>
     <g class="com.sun.star.drawing.ConnectorShape">
      <g id="id30">
       <path fill="none" stroke="rgb(0,0,0)" d="M 10750,18200 L 10750,19870"/>
       <path fill="rgb(0,0,0)" stroke="none" d="M 10750,20300 L 10900,19850 10600,19850 10750,20300 Z"/>
       <text class="TextShape"><tspan class="TextParagraph" font-family="DejaVu Sans, sans-serif" font-size="423px" font-weight="400"><tspan class="TextPosition" x="9759" y="19396"><tspan fill="rgb(0,0,0)" stroke="none">         </tspan><tspan fill="rgb(0,0,0)" stroke="none">так</tspan></tspan></tspan></text>
      </g>
     </g>
     <g class="com.sun.star.drawing.ConnectorShape">
      <g id="id31">
       <path fill="none" stroke="rgb(0,0,0)" d="M 16150,15400 L 16150,18900 1200,18900 1200,6650 1370,6650"/>
       <path fill="rgb(0,0,0)" stroke="none" d="M 1800,6650 L 1350,6500 1350,6800 1800,6650 Z"/>
       <text class="TextShape"><tspan class="TextParagraph" font-family="DejaVu Sans, sans-serif" font-size="423px" font-weight="400"><tspan class="TextPosition" x="8968" y="16145"><tspan fill="rgb(0,0,0)" stroke="none">       </tspan><tspan fill="rgb(0,0,0)" stroke="none">  </tspan><tspan fill="rgb(0,0,0)" stroke="none">ні</tspan></tspan></tspan></text>
      </g>
     </g>
    </g>
   </g>
  </g>
 </g>
</svg>